<?xml version="1.0" encoding="UTF-8"?>
<svg id="logo" xmlns="http://www.w3.org/2000/svg" version="1.1" viewBox="0 0 260 72">
  <path d="M98.6,55.3c-.2,0-.4,0-.6,0s-.4-.1-.6-.2l-5.7-1.9-6.1-2.4c-.5-.2-.8-.7-.8-1.6v-20.5c0-.5.2-.9.5-1.3l6.3-6.3c.4-.4.8-.5,1.3-.5h9.9c.5,0,.9.2,1.3.5l6.3,6.3c.3.3.5.8.5,1.3v13h-15.7l-.2,3.1,3.8,1.4,7.3,1c.3,0,.5.3.5.8v6.6c0,.5-.3.8-.8.8h-7.2ZM98,36.2h.4c.9,0,1.7-.3,2.2-1,.5-.7.8-1.6.8-2.8v-.4c0-1.2-.3-2.1-.8-2.7-.5-.7-1.3-1-2.2-1h-.4c-.9,0-1.6.3-2.1,1-.5.7-.8,1.6-.8,2.7v.4c0,1.2.3,2.1.8,2.8.5.7,1.3,1,2.2,1Z" style="fill: #00c14e; stroke: #00a944; stroke-miterlimit: 10;"/>
  <path d="M116.8,55.3c-.5,0-.8-.3-.8-.8V13.9c0-.5.3-.8.8-.8h9c.5,0,.8.3.8.8v8.7l1.6-1.6c.3-.4.8-.5,1.3-.5h4.2c.5,0,.9.2,1.3.5l6.3,6.3c.4.3.5.8.5,1.3v18.5c0,.5-.2.9-.5,1.3l-6.3,6.3c-.4.4-.8.5-1.3.5h-16.9ZM126.6,46.7h3c.6,0,1-.1,1.2-.4.2-.3.4-.7.4-1.3v-14.4c0-.6-.1-1-.3-1.3-.2-.3-.6-.4-1.2-.4h-1.4c-.6,0-1,.1-1.2.4-.2.3-.4.7-.4,1.3v16Z" style="fill: #00c14e; stroke: #00a944; stroke-miterlimit: 10;"/>
  <path d="M147.6,55.3c-.5,0-.8-.3-.8-.8v-5.9c0-.5.2-.8.5-.9l6.4-3.7v-2.5l-6.4-3.5c-.3-.2-.5-.5-.5-1v-10.3c0-.2,0-.4,0-.5s.2-.3.3-.4l6.7-4.9c.2-.1.4-.2.5-.3.2,0,.3,0,.5,0h8.5c.5,0,.8.3.8.8v5.8c0,.3,0,.6,0,.7,0,.1-.2.2-.3.3l-5.9,3.2v2.7l6.2,3.2c.4.1.5.5.5.9v9.9c0,.5-.2.9-.5,1.3l-6.5,5.6c-.3.3-.8.4-1.3.4h-8.7Z" style="fill: #00c14e; stroke: #00a944; stroke-miterlimit: 10;"/>
  <path d="M177.4,55.3c-.5,0-.9-.2-1.3-.5l-5.3-5.2c-.3-.4-.5-.8-.5-1.3v-19.2h-1.3c-.5,0-.8-.3-.8-.8v-7c0-.5.3-.8.8-.8h1.3v-4c0-.5.3-.8.8-.8h9c.5,0,.8.3.8.8v4h3.1c.5,0,.8.3.8.8v7c0,.5-.3.8-.8.8h-3.1v15.3c0,.4.1.7.4,1l3.1,3.1c.2.2.3.5.3.9v5.1c0,.5-.3.8-.8.8h-6.5Z" style="fill: #00c14e; stroke: #00a944; stroke-miterlimit: 10;"/>
  <path d="M189.9,55.3c-.5,0-.8-.3-.8-.8V21.3c0-.5.3-.8.8-.8h6.1c.4,0,.7.2,1,.5l2.5,2.8,2.8-3c.3-.3.6-.4.9-.4h3c.5,0,.8.3.8.8v8.3c0,.3,0,.6,0,.7,0,.1-.2.2-.4.4l-7,5v18.8c0,.5-.3.8-.8.8h-9Z" style="fill: #00c14e; stroke: #00a944; stroke-miterlimit: 10;"/>
  <path d="M210.8,55.3c-.5,0-.8-.3-.8-.8V21.3c0-.5.3-.8.8-.8h9c.5,0,.8.3.8.8v33.2c0,.5-.3.8-.8.8h-9Z" style="fill: #00c14e; stroke: #00a944; stroke-miterlimit: 10;"/>
  <path d="M227,64.8c-.5,0-.8-.3-.8-.8V21.3c0-.5.3-.8.8-.8h7.2c.4,0,.7.2,1.1.5l1.6,1.6,1.6-1.6c.3-.4.8-.5,1.3-.5h4.2c.5,0,.9.2,1.3.5l6.3,6.3c.4.3.5.8.5,1.3v18.5c0,.5-.2.9-.5,1.3l-6.3,6.3c-.4.4-.8.5-1.3.5h-4.2c-.5,0-.9-.2-1.3-.5l-1.6-1.6v10.8c0,.5-.3.8-.8.8h-9ZM236.8,46.7h3c.6,0,1-.1,1.2-.4.2-.3.4-.7.4-1.3v-14.4c0-.6-.1-1-.3-1.3-.2-.3-.6-.4-1.2-.4h-1.4c-.6,0-1,.1-1.2.4-.2.3-.4.7-.4,1.3v16Z" style="fill: #00c14e; stroke: #00a944; stroke-miterlimit: 10;"/>
  <g>
    <path d="M78.6,20.5h-9c-.4,0-.8.4-.8.8v24.7h-4.3v-24.7c0-.4-.4-.8-.8-.8h-9c-.4,0-.8.4-.8.8v24.7h-4.3v-24.7c0-.4-.4-.8-.8-.8h-15.1c-.3,0-.6.3-.6.6v4.6c0,.3.3.6.6.6h4.7c.3,0,.5.2.5.5v4.8c0,.3-.2.5-.5.5h-4.7c-.3,0-.6.3-.6.6v4.6c0,.3-.3.6-.6.6h-4.5c-.3,0-.6-.3-.6-.6v-4.6c0-.3-.3-.6-.6-.6h-10.4c-.3,0-.6.3-.6.6v4.6c0,.3.3.6.6.6h4.6c.3,0,.6.3.6.6v4.6c0,.3-.3.6-.6.6h-4.6c-.3,0-.6.3-.6.6v4.6c0,.3.3.6.6.6h4.6c.3,0,.6-.3.6-.6v-4.6c0-.3.3-.6.6-.6h4.5c.3,0,.6.3.6.6v4.6c0,.3.3.6.6.6h4.6c.3,0,.6-.3.6-.6v-4.6c0-.3.3-.6.6-.6h4.7c.3,0,.5.2.5.5v2.9c0,.5.2.9.5,1.3l6.3,6.3c.4.4.8.5,1.3.5h6.7c.5,0,.9-.2,1.3-.5l4.1-4.1,4.1,4.1c.4.4.8.5,1.3.5h6.7c.5,0,.9-.2,1.3-.5l6.3-6.3c.3-.3.5-.8.5-1.3v-25.9c0-.4-.4-.8-.8-.8Z" style="fill: #00c14e; stroke: #00a944; stroke-miterlimit: 10;"/>
    <path d="M22.3,26.3h4.5c.3,0,.6.3.6.6v4.6c0,.3.3.6.6.6h4.6c.3,0,.6-.3.6-.6v-4.6c0-.3-.3-.6-.6-.6h-4.5c-.3,0-.6-.3-.6-.6v-4.6c0-.3-.3-.6-.6-.6h-4.6c-.3,0-.6.3-.6.6v4.6c0,.3.3.6.6.6Z" style="fill: #00c14e; stroke: #00a944; stroke-miterlimit: 10;"/>
    <rect x="10.1" y="20.5" width="5.8" height="5.8" rx=".6" ry=".6" style="fill: #00c14e; stroke: #00a944; stroke-miterlimit: 10;"/>
    <rect x="21.7" y="49.5" width="5.8" height="5.8" rx=".6" ry=".6" style="fill: #00c14e; stroke: #00a944; stroke-miterlimit: 10;"/>
  </g>
  <g>
    <rect x="215.4" y="7.3" width="5.3" height="5.3" rx=".6" ry=".6" style="fill: #00c14e; stroke: #00a944; stroke-miterlimit: 10;"/>
    <rect x="210.1" y="12.6" width="5.3" height="5.3" rx=".6" ry=".6" style="fill: #00c14e; stroke: #00a944; stroke-miterlimit: 10;"/>
  </g>
</svg>